<svg id="Capa_1" data-name="Capa 1" xmlns="http://www.w3.org/2000/svg" viewBox="0 0 481.12 516"><defs><style>.cls-1{stroke:#000;stroke-miterlimit:10;stroke-width:4px;}</style></defs><path class="cls-1" d="M240.56,290.39C86.72,290.39,2,363.17,2,495.31A18.68,18.68,0,0,0,20.69,514H460.43a18.69,18.69,0,0,0,18.69-18.69C479.12,363.17,394.4,290.39,240.56,290.39ZM40.05,476.63c7.35-98.81,74.71-148.87,200.51-148.87s193.16,50.06,200.52,148.87Z"/><path class="cls-1" d="M240.56,2C169.89,2,116.61,56.36,116.61,128.44c0,74.19,55.6,134.54,124,134.54s124-60.35,124-134.54C364.51,56.36,311.23,2,240.56,2Zm0,223.61C192.82,225.61,154,182,154,128.44c0-51.61,36.41-89.07,86.58-89.07,49.36,0,86.58,38.29,86.58,89.07C327.14,182,288.3,225.61,240.56,225.61Z"/></svg>