<svg id="Layer_1" data-name="Layer 1" xmlns="http://www.w3.org/2000/svg" viewBox="0 0 30.02 27"><defs><style>.cls-1{fill:#101820;}</style></defs><g id="Layer_61" data-name="Layer 61"><path class="cls-1" d="M9,17a1,1,0,0,1-1-.8L5.66,4.41A3,3,0,0,0,2.72,2H1A1,1,0,0,1,1,0H2.72a5,5,0,0,1,4.9,4L10,15.8A1,1,0,0,1,9.24,17H9Z"/><path class="cls-1" d="M10,24H8.14a4.14,4.14,0,0,1-.38-8.26l18.41-1.67L27.78,6H7A1,1,0,0,1,7,4H29a1,1,0,0,1,1,1.2l-2,10a1,1,0,0,1-.89.8L7.94,17.74A2.13,2.13,0,0,0,8.14,22H10a1,1,0,0,1,0,2Z"/><path class="cls-1" d="M25,27a4,4,0,1,1,4-4A4,4,0,0,1,25,27Zm0-6a2,2,0,1,0,2,2A2,2,0,0,0,25,21Z"/><path class="cls-1" d="M13,27a4,4,0,1,1,4-4A4,4,0,0,1,13,27Zm0-6a2,2,0,1,0,2,2A2,2,0,0,0,13,21Z"/><path class="cls-1" d="M22,24H16a1,1,0,0,1,0-2h6a1,1,0,0,1,0,2Z"/></g></svg>