<?xml version="1.0" encoding="windows-1252"?>
<!-- Generator: Adobe Illustrator 17.1.0, SVG Export Plug-In . SVG Version: 6.00 Build 0)  -->
<!DOCTYPE svg PUBLIC "-//W3C//DTD SVG 1.1//EN" "http://www.w3.org/Graphics/SVG/1.1/DTD/svg11.dtd">
<svg version="1.1" id="Capa_1" xmlns="http://www.w3.org/2000/svg" xmlns:xlink="http://www.w3.org/1999/xlink" x="0px" y="0px" viewBox="0 0 369 369" style="enable-background:new 0 0 369 369;" xml:space="preserve" fill="#2f2f30">
<g>
	<path d="M362.489,121.053c-2.231,0-3.905,1.168-4.52,1.67l-108.411,95.261c-2.106,1.896-4.741,2.898-7.62,2.898   c-2.887,0-5.62-1.026-7.741-2.932l-105.114-92.071c-0.88-0.834-2.961-2.486-5.605-2.486c-0.663,0-6.477,0.227-6.477,8.069v141.345   c0,9.205,7.426,16.694,16.555,16.694h219.197c9.111,0,16.248-7.333,16.248-16.694V129.274   C369,121.284,363.155,121.053,362.489,121.053z"/>
	<path d="M126.985,92.471l105.779,91.261c0.979,0.942,4.235,3.666,9.171,3.666c4.717,0,8.056-2.702,8.68-3.245l107.028-93.376   l0.134-0.121c1.456-1.366,4.485-4.208,3.043-7.855c-0.794-2.005-2.734-3.3-4.945-3.3H130.431c-2.709,0-5.115,1.539-6.132,3.921   c-0.688,1.614-1.277,4.914,2.522,8.878L126.985,92.471z"/>
	<path d="M80,134.5H50c-5.514,0-10,4.486-10,10v7c0,5.514,4.486,10,10,10h30c5.514,0,10-4.486,10-10v-7   C90,138.986,85.514,134.5,80,134.5z"/>
	<path d="M80,178.5H30c-5.514,0-10,4.486-10,10v7c0,5.514,4.486,10,10,10h50c5.514,0,10-4.486,10-10v-7   C90,182.986,85.514,178.5,80,178.5z"/>
	<path d="M80,222.5H10c-5.514,0-10,4.486-10,10v7c0,5.514,4.486,10,10,10h70c5.514,0,10-4.486,10-10v-7   C90,226.986,85.514,222.5,80,222.5z"/>
</g>
<g>
</g>
<g>
</g>
<g>
</g>
<g>
</g>
<g>
</g>
<g>
</g>
<g>
</g>
<g>
</g>
<g>
</g>
<g>
</g>
<g>
</g>
<g>
</g>
<g>
</g>
<g>
</g>
<g>
</g>
</svg>